<svg width="40" height="40" viewBox="0 0 40 40" fill="none" xmlns="http://www.w3.org/2000/svg">
<path d="M20 5C21.9698 5 23.9204 5.38799 25.7403 6.14181C27.5601 6.89563 29.2137 8.00052 30.6066 9.3934C31.9995 10.7863 33.1044 12.4399 33.8582 14.2597C34.612 16.0796 35 18.0302 35 20C35 21.9698 34.612 23.9204 33.8582 25.7403C33.1044 27.5601 31.9995 29.2137 30.6066 30.6066C29.2137 31.9995 27.5601 33.1044 25.7403 33.8582C23.9204 34.612 21.9698 35 20 35C16.0218 35 12.2064 33.4196 9.3934 30.6066C6.58035 27.7936 5 23.9782 5 20C5 16.0218 6.58035 12.2064 9.3934 9.3934C12.2064 6.58035 16.0218 5 20 5ZM20 7.5C16.6848 7.5 13.5054 8.81696 11.1612 11.1612C8.81696 13.5054 7.5 16.6848 7.5 20C7.5 23.3152 8.81696 26.4946 11.1612 28.8388C13.5054 31.183 16.6848 32.5 20 32.5C23.3152 32.5 26.4946 31.183 28.8388 28.8388C31.183 26.4946 32.5 23.3152 32.5 20C32.5 16.6848 31.183 13.5054 28.8388 11.1612C26.4946 8.81696 23.3152 7.5 20 7.5ZM18.125 22.605L25.3 15.41C25.5201 15.1877 25.8155 15.0559 26.1279 15.0408C26.4404 15.0257 26.7471 15.1282 26.9876 15.3282C27.2282 15.5283 27.3849 15.8112 27.427 16.1211C27.4691 16.4311 27.3935 16.7456 27.215 17.0025L27.07 17.1775L19.01 25.2575C18.8035 25.465 18.5307 25.5933 18.2392 25.6203C17.9478 25.6473 17.6561 25.5711 17.415 25.405L17.24 25.26L12.865 20.885C12.6435 20.6645 12.5127 20.3691 12.4982 20.0569C12.4838 19.7448 12.5868 19.4385 12.7869 19.1985C12.9871 18.9586 13.2699 18.8022 13.5795 18.7604C13.8892 18.7186 14.2033 18.7942 14.46 18.9725L14.635 19.115L18.125 22.605Z" fill="#26D782"/>
</svg>
